<svg width="68" height="64" viewBox="0 0 68 64" fill="none" xmlns="http://www.w3.org/2000/svg">
<path d="M28.3333 8H11.3333C10.5819 8 9.86122 8.28095 9.32986 8.78105C8.79851 9.28115 8.5 9.95942 8.5 10.6667V26.6667C8.5 27.3739 8.79851 28.0522 9.32986 28.5523C9.86122 29.0524 10.5819 29.3333 11.3333 29.3333H28.3333C29.0848 29.3333 29.8054 29.0524 30.3368 28.5523C30.8682 28.0522 31.1667 27.3739 31.1667 26.6667V10.6667C31.1667 9.95942 30.8682 9.28115 30.3368 8.78105C29.8054 8.28095 29.0848 8 28.3333 8ZM25.5 24H14.1667V13.3333H25.5V24ZM56.6667 8H39.6667C38.9152 8 38.1945 8.28095 37.6632 8.78105C37.1318 9.28115 36.8333 9.95942 36.8333 10.6667V26.6667C36.8333 27.3739 37.1318 28.0522 37.6632 28.5523C38.1945 29.0524 38.9152 29.3333 39.6667 29.3333H56.6667C57.4181 29.3333 58.1388 29.0524 58.6701 28.5523C59.2015 28.0522 59.5 27.3739 59.5 26.6667V10.6667C59.5 9.95942 59.2015 9.28115 58.6701 8.78105C58.1388 8.28095 57.4181 8 56.6667 8ZM53.8333 24H42.5V13.3333H53.8333V24ZM28.3333 34.6667H11.3333C10.5819 34.6667 9.86122 34.9476 9.32986 35.4477C8.79851 35.9478 8.5 36.6261 8.5 37.3333V53.3333C8.5 54.0406 8.79851 54.7189 9.32986 55.219C9.86122 55.7191 10.5819 56 11.3333 56H28.3333C29.0848 56 29.8054 55.7191 30.3368 55.219C30.8682 54.7189 31.1667 54.0406 31.1667 53.3333V37.3333C31.1667 36.6261 30.8682 35.9478 30.3368 35.4477C29.8054 34.9476 29.0848 34.6667 28.3333 34.6667ZM25.5 50.6667H14.1667V40H25.5V50.6667ZM48.1667 34.6667C41.9163 34.6667 36.8333 39.4507 36.8333 45.3333C36.8333 51.216 41.9163 56 48.1667 56C54.417 56 59.5 51.216 59.5 45.3333C59.5 39.4507 54.417 34.6667 48.1667 34.6667ZM48.1667 50.6667C45.0415 50.6667 42.5 48.2747 42.5 45.3333C42.5 42.392 45.0415 40 48.1667 40C51.2918 40 53.8333 42.392 53.8333 45.3333C53.8333 48.2747 51.2918 50.6667 48.1667 50.6667Z" fill="#545454"/>
</svg>
