<svg width="53" height="48" viewBox="0 0 53 48" fill="none" xmlns="http://www.w3.org/2000/svg">
<path d="M52.4739 4.69864C52.8108 5.00437 53 5.41845 53 5.85014C53 6.28183 52.8108 6.69592 52.4739 7.00165L48.713 10.4072L41.5012 3.88313L45.2621 0.477542C45.6002 0.171772 46.0588 0 46.5368 0C47.0149 0 47.4734 0.171772 47.8115 0.477542L52.4739 4.69538V4.69864ZM46.1636 12.7102L38.9518 6.18613L14.3849 28.4138C14.1864 28.5933 14.037 28.8122 13.9486 29.0531L11.0459 36.9277C10.9932 37.0713 10.9857 37.2252 11.0243 37.3724C11.0628 37.5196 11.1458 37.6542 11.264 37.7611C11.3823 37.8681 11.531 37.9432 11.6937 37.9781C11.8564 38.0129 12.0266 38.0061 12.1853 37.9585L20.8899 35.3326C21.1559 35.2535 21.3979 35.1195 21.5967 34.9411L46.1636 12.7135V12.7102Z" fill="#545454"/>
<path fill-rule="evenodd" clip-rule="evenodd" d="M0 42.9643C0 44.2998 0.5757 45.5807 1.60045 46.5251C2.6252 47.4695 4.01507 48 5.46429 48H45.5357C46.9849 48 48.3748 47.4695 49.3995 46.5251C50.4243 45.5807 51 44.2998 51 42.9643V22.8214C51 22.3762 50.8081 21.9493 50.4665 21.6345C50.1249 21.3197 49.6616 21.1429 49.1786 21.1429C48.6955 21.1429 48.2322 21.3197 47.8906 21.6345C47.549 21.9493 47.3571 22.3762 47.3571 22.8214V42.9643C47.3571 43.4095 47.1652 43.8364 46.8237 44.1512C46.4821 44.466 46.0188 44.6429 45.5357 44.6429H5.46429C4.98121 44.6429 4.51793 44.466 4.17634 44.1512C3.83476 43.8364 3.64286 43.4095 3.64286 42.9643V6.03571C3.64286 5.59053 3.83476 5.16358 4.17634 4.84879C4.51793 4.53399 4.98121 4.35714 5.46429 4.35714H29.1429C29.6259 4.35714 30.0892 4.18029 30.4308 3.8655C30.7724 3.55071 30.9643 3.12376 30.9643 2.67857C30.9643 2.23339 30.7724 1.80644 30.4308 1.49164C30.0892 1.17685 29.6259 1 29.1429 1H5.46429C4.01507 1 2.6252 1.53055 1.60045 2.47493C0.5757 3.41931 0 4.70016 0 6.03571V42.9643Z" fill="#545454"/>
</svg>
