<svg width="62" height="46" viewBox="0 0 62 46" fill="none" xmlns="http://www.w3.org/2000/svg">
<path d="M9.3 8.625C9.3 5.44902 12.0803 2.875 15.5 2.875H55.8C59.2197 2.875 62 5.44902 62 8.625V28.75C62 31.9215 59.2197 34.5 55.8 34.5H15.5C12.0803 34.5 9.3 31.9215 9.3 28.75V8.625ZM15.5 28.75H21.7C21.7 25.5785 18.9197 23 15.5 23V28.75ZM15.5 8.625V14.375C18.9197 14.375 21.7 11.7965 21.7 8.625H15.5ZM55.8 23C52.3803 23 49.6 25.5785 49.6 28.75H55.8V23ZM49.6 8.625C49.6 11.7965 52.3803 14.375 55.8 14.375V8.625H49.6ZM35.65 11.5C31.3681 11.5 27.9 14.7164 27.9 18.6875C27.9 22.6586 31.3681 25.875 35.65 25.875C39.9319 25.875 43.4 22.6586 43.4 18.6875C43.4 14.7164 39.9319 11.5 35.65 11.5ZM4.65 32.3438C4.65 35.9195 7.77325 38.8125 11.625 38.8125H50.375C51.6634 38.8125 52.7 39.7738 52.7 40.9688C52.7 42.1637 51.6634 43.125 50.375 43.125H11.625C5.20509 43.125 0 38.3004 0 32.3438V10.7812C0 9.58633 1.04141 8.625 2.325 8.625C3.60859 8.625 4.65 9.58633 4.65 10.7812V32.3438Z" fill="#545454"/>
</svg>
