<svg width="37" height="46" viewBox="0 0 37 46" fill="none" xmlns="http://www.w3.org/2000/svg">
<path d="M22.4598 0.164063H6.25C4.62555 0.164063 3.06763 0.756695 1.91897 1.81159C0.77031 2.86648 0.125 4.29722 0.125 5.78906V39.5391C0.125 41.0309 0.77031 42.4616 1.91897 43.5165C3.06763 44.5714 4.62555 45.1641 6.25 45.1641H30.75C32.3745 45.1641 33.9324 44.5714 35.081 43.5165C36.2297 42.4616 36.875 41.0309 36.875 39.5391V13.4025C36.8748 12.6566 36.5521 11.9414 35.9777 11.4141L24.625 0.988125C24.0508 0.460642 23.272 0.164222 22.4598 0.164062V0.164063ZM23.0938 10.0078V4.38281L32.2812 12.8203H26.1562C25.344 12.8203 24.5651 12.524 23.9907 11.9965C23.4164 11.4691 23.0938 10.7537 23.0938 10.0078ZM7.78125 25.4766C7.37514 25.4766 6.98566 25.3284 6.69849 25.0647C6.41133 24.801 6.25 24.4433 6.25 24.0703C6.25 23.6974 6.41133 23.3397 6.69849 23.0759C6.98566 22.8122 7.37514 22.6641 7.78125 22.6641H29.2188C29.6249 22.6641 30.0143 22.8122 30.3015 23.0759C30.5887 23.3397 30.75 23.6974 30.75 24.0703C30.75 24.4433 30.5887 24.801 30.3015 25.0647C30.0143 25.3284 29.6249 25.4766 29.2188 25.4766H7.78125ZM6.25 29.6953C6.25 29.3224 6.41133 28.9647 6.69849 28.7009C6.98566 28.4372 7.37514 28.2891 7.78125 28.2891H29.2188C29.6249 28.2891 30.0143 28.4372 30.3015 28.7009C30.5887 28.9647 30.75 29.3224 30.75 29.6953C30.75 30.0683 30.5887 30.426 30.3015 30.6897C30.0143 30.9534 29.6249 31.1016 29.2188 31.1016H7.78125C7.37514 31.1016 6.98566 30.9534 6.69849 30.6897C6.41133 30.426 6.25 30.0683 6.25 29.6953ZM7.78125 36.7266C7.37514 36.7266 6.98566 36.5784 6.69849 36.3147C6.41133 36.051 6.25 35.6933 6.25 35.3203C6.25 34.9474 6.41133 34.5897 6.69849 34.3259C6.98566 34.0622 7.37514 33.9141 7.78125 33.9141H20.0312C20.4374 33.9141 20.8268 34.0622 21.114 34.3259C21.4012 34.5897 21.5625 34.9474 21.5625 35.3203C21.5625 35.6933 21.4012 36.051 21.114 36.3147C20.8268 36.5784 20.4374 36.7266 20.0312 36.7266H7.78125Z" fill="#545454"/>
</svg>
