<svg width="16" height="13" viewBox="0 0 16 13" fill="none" xmlns="http://www.w3.org/2000/svg">
<path fill-rule="evenodd" clip-rule="evenodd" d="M0.87868 1.43422C0 2.3129 0 3.72711 0 6.55554V6.99999C0 9.82841 0 11.2426 0.87868 12.1213C1.75736 13 3.17157 13 6 13H10C12.8284 13 14.2426 13 15.1213 12.1213C16 11.2426 16 9.82841 16 6.99999V6.55554C16 3.72712 16 2.3129 15.1213 1.43422C14.2426 0.555542 12.8284 0.555542 10 0.555542H6C3.17157 0.555542 1.75736 0.555542 0.87868 1.43422ZM3.22142 3.27906C2.76189 2.9727 2.14102 3.09688 1.83467 3.55641C1.52831 4.01593 1.65249 4.6368 2.11202 4.94316L6.89065 8.12891C7.56245 8.57678 8.43765 8.57678 9.10945 8.12891L13.8881 4.94316C14.3476 4.6368 14.4718 4.01593 14.1654 3.55641C13.8591 3.09688 13.2382 2.9727 12.7787 3.27906L8.00005 6.46481L3.22142 3.27906Z" fill="white"/>
</svg>
