<svg width="30" height="30" viewBox="0 0 30 30" fill="none" xmlns="http://www.w3.org/2000/svg">
<g clip-path="url(#clip0_8_7530)">
<path d="M15 0C6.729 0 0 6.729 0 15C0 23.271 6.729 30 15 30C23.271 30 30 23.271 30 15C30 6.729 23.271 0 15 0ZM15 27C8.3835 27 3 21.6165 3 15C3 8.3835 8.3835 3 15 3C21.6165 3 27 8.3835 27 15C27 21.6165 21.6165 27 15 27Z" fill="#C5C5C5"/>
<path d="M16.5 10.5H19.5V19.5H16.5V10.5ZM10.5 10.5H13.5V19.5H10.5V10.5Z" fill="#C5C5C5"/>
</g>
<defs>
<clipPath id="clip0_8_7530">
<rect width="30" height="30" fill="white"/>
</clipPath>
</defs>
</svg>
