<svg width="30" height="30" viewBox="0 0 30 30" fill="none" xmlns="http://www.w3.org/2000/svg">
<g clip-path="url(#clip0_8_7533)">
<path d="M25.3125 0C26.183 0 27.0364 0.242412 27.7769 0.700074C28.5174 1.15774 29.1158 1.81257 29.5051 2.59119C29.8944 3.36981 30.0592 4.24146 29.9811 5.10846C29.9029 5.97547 29.5848 6.80358 29.0625 7.5L27.1875 9.375L20.625 2.8125L22.5 0.9375C23.2838 0.34875 24.2569 0 25.3125 0ZM1.875 21.5625L0 30L8.4375 28.125L25.7812 10.7812L19.2188 4.21875L1.875 21.5625ZM20.9644 10.6519L7.83938 23.7769L6.22312 22.1606L19.3481 9.03562L20.9644 10.6519Z" fill="#C5C5C5"/>
</g>
<defs>
<clipPath id="clip0_8_7533">
<rect width="30" height="30" fill="white"/>
</clipPath>
</defs>
</svg>
