<svg width="12" height="11" viewBox="0 0 12 11" fill="none" xmlns="http://www.w3.org/2000/svg">
<g clip-path="url(#clip0_2214_46592)">
<path d="M11.8539 10.2176L8.86938 7.48186C9.68269 6.57004 10.0826 5.40656 9.9863 4.23207C9.89003 3.05758 9.30499 1.96193 8.35217 1.17176C7.39936 0.381589 6.15168 -0.0426522 4.8672 -0.0132127C3.58273 0.0162269 2.35973 0.497095 1.45119 1.32993C0.542641 2.16276 0.0180572 3.28384 -0.0140587 4.46127C-0.0461746 5.63871 0.416635 6.78242 1.27864 7.65583C2.14064 8.52925 3.3359 9.06554 4.61716 9.15378C5.89843 9.24203 7.16768 8.87547 8.16238 8.12994L11.1469 10.8657C11.2412 10.9492 11.3675 10.9954 11.4986 10.9944C11.6297 10.9933 11.7551 10.9451 11.8478 10.8601C11.9405 10.7752 11.9931 10.6602 11.9942 10.54C11.9954 10.4199 11.945 10.3041 11.8539 10.2176ZM5.00038 8.25002C4.20925 8.25002 3.4359 8.03498 2.7781 7.63208C2.1203 7.22918 1.60761 6.65652 1.30486 5.98653C1.00211 5.31653 0.922897 4.57929 1.07724 3.86802C1.23158 3.15676 1.61254 2.50342 2.17195 1.99063C2.73136 1.47784 3.44409 1.12862 4.22002 0.987143C4.99594 0.845663 5.80021 0.918276 6.53111 1.1958C7.26202 1.47332 7.88673 1.94328 8.32626 2.54626C8.76578 3.14924 9.00038 3.85816 9.00038 4.58336C8.99919 5.55548 8.57738 6.48748 7.82749 7.17487C7.0776 7.86227 6.06088 8.24893 5.00038 8.25002Z" fill="white"/>
</g>
<defs>
<clipPath id="clip0_2214_46592">
<rect width="12" height="11" fill="white"/>
</clipPath>
</defs>
</svg>
