<svg width="53" height="54" viewBox="0 0 53 54" fill="none" xmlns="http://www.w3.org/2000/svg">
<path d="M52.4739 6.10402C52.8108 6.43958 53 6.89408 53 7.36791C53 7.84173 52.8108 8.29623 52.4739 8.6318L48.713 12.3698L41.5012 5.20891L45.2621 1.47093C45.6002 1.13532 46.0588 0.946777 46.5368 0.946777C47.0149 0.946777 47.4734 1.13532 47.8115 1.47093L52.4739 6.10043V6.10402ZM46.1636 14.8976L38.9518 7.73669L14.3849 32.1338C14.1864 32.3308 14.037 32.5711 13.9486 32.8356L11.0459 41.4787C10.9932 41.6363 10.9857 41.8053 11.0243 41.9669C11.0628 42.1284 11.1458 42.2761 11.264 42.3935C11.3823 42.5109 11.531 42.5933 11.6937 42.6316C11.8564 42.6698 12.0266 42.6624 12.1853 42.6102L20.8899 39.7279C21.1559 39.6411 21.3979 39.494 21.5967 39.2983L46.1636 14.9011V14.8976Z" fill="#C5C5C5"/>
<path fill-rule="evenodd" clip-rule="evenodd" d="M0 48.1045C0 49.5705 0.5757 50.9763 1.60045 52.0129C2.6252 53.0494 4.01507 53.6318 5.46429 53.6318H45.5357C46.9849 53.6318 48.3748 53.0494 49.3995 52.0129C50.4243 50.9763 51 49.5705 51 48.1045V25.9957C51 25.5071 50.8081 25.0384 50.4665 24.6929C50.1249 24.3474 49.6616 24.1533 49.1786 24.1533C48.6955 24.1533 48.2322 24.3474 47.8906 24.6929C47.549 25.0384 47.3571 25.5071 47.3571 25.9957V48.1045C47.3571 48.5932 47.1652 49.0618 46.8237 49.4073C46.4821 49.7528 46.0188 49.947 45.5357 49.947H5.46429C4.98121 49.947 4.51793 49.7528 4.17634 49.4073C3.83476 49.0618 3.64286 48.5932 3.64286 48.1045V7.57165C3.64286 7.08301 3.83476 6.61439 4.17634 6.26887C4.51793 5.92335 4.98121 5.72924 5.46429 5.72924H29.1429C29.6259 5.72924 30.0892 5.53513 30.4308 5.18962C30.7724 4.8441 30.9643 4.37547 30.9643 3.88684C30.9643 3.3982 30.7724 2.92958 30.4308 2.58406C30.0892 2.23854 29.6259 2.04443 29.1429 2.04443H5.46429C4.01507 2.04443 2.6252 2.62676 1.60045 3.66332C0.5757 4.69987 0 6.10574 0 7.57165V48.1045Z" fill="#C5C5C5"/>
</svg>
