<svg width="21" height="18" viewBox="0 0 21 18" fill="none" xmlns="http://www.w3.org/2000/svg">
<g clip-path="url(#clip0_2214_46666)">
<path d="M20.7423 16.7193L15.5195 12.2426C16.9428 10.7505 17.6425 8.84666 17.4741 6.92476C17.3056 5.00287 16.2818 3.20999 14.6143 1.91698C12.9469 0.623975 10.7635 -0.0702385 8.51565 -0.0220646C6.26782 0.0261092 4.12758 0.812985 2.53762 2.1758C0.947668 3.53862 0.029647 5.37311 -0.0265559 7.29982C-0.0827587 9.22654 0.727157 11.0981 2.23567 12.5273C3.74417 13.9565 5.83586 14.8341 8.07808 14.9785C10.3203 15.1229 12.5415 14.5231 14.2822 13.3031L19.5051 17.7798C19.6701 17.9165 19.8911 17.9921 20.1206 17.9903C20.35 17.9886 20.5694 17.9098 20.7317 17.7707C20.8939 17.6317 20.9859 17.4435 20.9879 17.2469C20.9899 17.0502 20.9017 16.8608 20.7423 16.7193ZM8.74871 13.4996C7.36424 13.4996 6.01086 13.1477 4.85972 12.4884C3.70857 11.8291 2.81137 10.892 2.28155 9.79569C1.75174 8.69934 1.61312 7.49294 1.88321 6.32905C2.15331 5.16516 2.82 4.09607 3.79896 3.25695C4.77793 2.41784 6.02521 1.84639 7.38308 1.61488C8.74094 1.38337 10.1484 1.50219 11.4275 1.95631C12.7066 2.41044 13.7998 3.17948 14.569 4.16617C15.3382 5.15287 15.7487 6.3129 15.7487 7.49959C15.7466 9.09034 15.0085 10.6154 13.6962 11.7403C12.3839 12.8651 10.6046 13.4978 8.74871 13.4996Z" fill="#A9ABAD"/>
</g>
<defs>
<clipPath id="clip0_2214_46666">
<rect width="21" height="18" fill="white"/>
</clipPath>
</defs>
</svg>
