<svg width="119" height="113" viewBox="0 0 119 113" fill="none" xmlns="http://www.w3.org/2000/svg">
<path fill-rule="evenodd" clip-rule="evenodd" d="M64.9739 61.5256C74.4139 59.4428 81.4211 51.7369 81.4211 42.5494C81.4211 31.7628 71.7625 23.0185 59.848 23.0185C47.9335 23.0185 38.2749 31.7628 38.2749 42.5494C38.2749 51.4783 44.8932 59.0079 53.9309 61.3364C53.455 61.4566 52.9828 61.5926 52.5145 61.7437C46.8281 63.5789 41.8297 67.6056 37.7122 72.3461C33.586 77.0968 30.2693 82.6501 27.9631 87.6882L30.4931 88.8517C32.7103 84.0081 35.8915 78.6916 39.8117 74.1782C43.7407 69.6546 48.3371 66.023 53.3676 64.3996C58.3379 62.7956 63.8417 63.1127 69.7708 66.6767C75.754 70.2732 82.2227 77.2122 88.911 88.9613L91.3288 87.5786C84.5165 75.6117 77.7542 68.2222 71.2024 64.2839C69.0953 63.0173 67.0157 62.1116 64.9739 61.5256ZM59.848 59.2901C70.4984 59.2901 78.6374 51.5347 78.6374 42.5494C78.6374 33.5641 70.4984 25.8086 59.848 25.8086C49.1975 25.8086 41.0585 33.5641 41.0585 42.5494C41.0585 51.5347 49.1975 59.2901 59.848 59.2901Z" fill="#9E9B9B"/>
<path fill-rule="evenodd" clip-rule="evenodd" d="M59.5 113C92.3609 113 119 87.7041 119 56.5C119 25.2959 92.3609 0 59.5 0C26.6391 0 0 25.2959 0 56.5C0 87.7041 26.6391 113 59.5 113ZM59.5 110.21C90.9673 110.21 116.216 86.0229 116.216 56.5C116.216 26.9771 90.9673 2.79012 59.5 2.79012C28.0327 2.79012 2.78363 26.9771 2.78363 56.5C2.78363 86.0229 28.0327 110.21 59.5 110.21Z" fill="#9E9B9B"/>
</svg>
