<svg width="15" height="16" viewBox="0 0 15 16" fill="none" xmlns="http://www.w3.org/2000/svg">
<g clip-path="url(#clip0_2339_13737)">
<path d="M12.6562 0C13.0915 0 13.5182 0.129287 13.8884 0.373373C14.2587 0.617459 14.5579 0.966702 14.7526 1.38197C14.9472 1.79723 15.0296 2.26211 14.9905 2.72451C14.9514 3.18692 14.7924 3.62858 14.5312 4L13.5938 5L10.3125 1.5L11.25 0.5C11.6419 0.186 12.1284 0 12.6562 0ZM0.9375 11.5L0 16L4.21875 15L12.8906 5.75L9.60938 2.25L0.9375 11.5ZM10.4822 5.681L3.91969 12.681L3.11156 11.819L9.67406 4.819L10.4822 5.681Z" fill="#C5C5C5"/>
</g>
<defs>
<clipPath id="clip0_2339_13737">
<rect width="15" height="16" fill="white"/>
</clipPath>
</defs>
</svg>
