<svg width="11" height="12" viewBox="0 0 11 12" fill="none" xmlns="http://www.w3.org/2000/svg">
<path d="M9.34762 11.375H9.27856C1.29574 10.8806 0.162307 3.62688 0.00386946 1.41313C-0.00889685 1.241 0.00999922 1.06786 0.0594749 0.903617C0.108951 0.739374 0.188033 0.587258 0.292192 0.455985C0.396351 0.324713 0.523539 0.216863 0.666467 0.138617C0.809396 0.0603711 0.965257 0.0132658 1.12512 4.10196e-07H3.36356C3.52628 -0.000169236 3.68531 0.0522859 3.82003 0.150571C3.95476 0.248856 4.05897 0.388443 4.11918 0.551251L4.73668 2.1875C4.79614 2.34655 4.81089 2.52091 4.77911 2.68892C4.74733 2.85692 4.67042 3.01117 4.55793 3.1325L3.69262 4.07313C3.82779 4.90033 4.19563 5.66285 4.74639 6.25754C5.29715 6.85223 6.00424 7.25038 6.77199 7.39812L7.65356 6.4575C7.76792 6.33769 7.9125 6.2568 8.06927 6.2249C8.22604 6.193 8.38805 6.21151 8.53512 6.27813L10.0667 6.93875C10.2156 7.00564 10.3426 7.11875 10.4316 7.26367C10.5206 7.40859 10.5675 7.57876 10.5664 7.7525V10.0625C10.5664 10.4106 10.438 10.7444 10.2094 10.9906C9.98085 11.2367 9.67085 11.375 9.34762 11.375ZM1.22262 0.875C1.11488 0.875 1.01154 0.921094 0.935357 1.00314C0.859171 1.08519 0.816369 1.19647 0.816369 1.3125V1.3475C1.00324 3.9375 2.20168 10.0625 9.32325 10.5C9.37662 10.5036 9.43011 10.4957 9.48067 10.477C9.53122 10.4582 9.57784 10.4289 9.61785 10.3907C9.65786 10.3525 9.69046 10.3061 9.71381 10.2543C9.73715 10.2025 9.75076 10.1462 9.75387 10.0887V7.7525L8.22231 7.09187L7.05637 8.33875L6.86137 8.3125C3.32699 7.83563 2.84762 4.02938 2.84762 3.99L2.82324 3.78L3.97699 2.52438L3.36762 0.875H1.22262Z" fill="white"/>
</svg>
