<svg width="32" height="30" viewBox="0 0 32 30" fill="none" xmlns="http://www.w3.org/2000/svg">
<g clip-path="url(#clip0_8_7535)">
<path d="M15.476 -0.148682C16.7012 -0.148854 17.8823 0.309005 18.7872 1.135C19.6922 1.96099 20.2557 3.09544 20.3671 4.3156H27.976C28.3153 4.31571 28.642 4.44461 28.8899 4.67627C29.1379 4.90793 29.2886 5.22507 29.3118 5.5636C29.3349 5.90214 29.2287 6.23684 29.0145 6.50007C28.8004 6.76329 28.4943 6.93542 28.1581 6.98168L27.976 6.99418H26.9349L24.6724 26.6013C24.5717 27.4717 24.1545 28.2746 23.5003 28.8574C22.846 29.4402 22.0004 29.7621 21.1242 29.762H9.82779C8.95163 29.7621 8.10599 29.4402 7.45175 28.8574C6.79751 28.2746 6.38033 27.4717 6.27958 26.6013L4.01529 6.99418H2.976C2.65237 6.99416 2.33968 6.87696 2.09577 6.66423C1.85186 6.45151 1.69323 6.15766 1.64922 5.83703L1.63672 5.65489C1.63673 5.33125 1.75394 5.01857 1.96666 4.77466C2.17938 4.53075 2.47323 4.37212 2.79386 4.3281L2.976 4.3156H10.5849C10.6963 3.09544 11.2598 1.96099 12.1648 1.135C13.0697 0.309005 14.2508 -0.148854 15.476 -0.148682ZM12.7974 11.012C12.3599 11.012 11.9939 11.2888 11.9189 11.6531L11.9046 11.7942V22.7317L11.9189 22.871C11.9939 23.2352 12.3599 23.512 12.7974 23.512C13.2349 23.512 13.601 23.2352 13.676 22.871L13.6903 22.7299V11.796L13.676 11.6531C13.601 11.2906 13.2349 11.012 12.7974 11.012ZM18.1546 11.012C17.7171 11.012 17.351 11.2888 17.276 11.6531L17.2617 11.7942V22.7317L17.276 22.871C17.351 23.2352 17.7171 23.512 18.1546 23.512C18.5921 23.512 18.9581 23.2352 19.0331 22.871L19.0474 22.7299V11.796L19.0331 11.6531C18.9581 11.2906 18.5921 11.0138 18.1546 11.0138V11.012ZM15.476 2.52989C14.3956 2.52989 13.4939 3.29775 13.2885 4.3156H17.6635C17.4564 3.29775 16.5564 2.52989 15.476 2.52989Z" fill="#C5C5C5"/>
</g>
<defs>
<clipPath id="clip0_8_7535">
<rect width="31.1111" height="30" fill="white"/>
</clipPath>
</defs>
</svg>
